<svg width="124" height="35" viewBox="0 0 124 35" fill="none" xmlns="http://www.w3.org/2000/svg">
<path d="M6.456 10.672C6.98933 9.84 7.72533 9.168 8.664 8.656C9.60267 8.144 10.7013 7.888 11.96 7.888C13.432 7.888 14.7653 8.26133 15.96 9.008C17.1547 9.75467 18.0933 10.8213 18.776 12.208C19.48 13.5947 19.832 15.2053 19.832 17.04C19.832 18.8747 19.48 20.496 18.776 21.904C18.0933 23.2907 17.1547 24.368 15.96 25.136C14.7653 25.8827 13.432 26.256 11.96 26.256C10.7227 26.256 9.624 26 8.664 25.488C7.72533 24.976 6.98933 24.3147 6.456 23.504V34.512H0.984V8.144H6.456V10.672ZM14.264 17.04C14.264 15.6747 13.88 14.608 13.112 13.84C12.3653 13.0507 11.4373 12.656 10.328 12.656C9.24 12.656 8.312 13.0507 7.544 13.84C6.79733 14.6293 6.424 15.7067 6.424 17.072C6.424 18.4373 6.79733 19.5147 7.544 20.304C8.312 21.0933 9.24 21.488 10.328 21.488C11.416 21.488 12.344 21.0933 13.112 20.304C13.88 19.4933 14.264 18.4053 14.264 17.04ZM25.4548 6.288C24.4948 6.288 23.7054 6.01067 23.0868 5.456C22.4894 4.88 22.1908 4.176 22.1908 3.344C22.1908 2.49067 22.4894 1.78667 23.0868 1.232C23.7054 0.655998 24.4948 0.367998 25.4548 0.367998C26.3934 0.367998 27.1614 0.655998 27.7588 1.232C28.3774 1.78667 28.6868 2.49067 28.6868 3.344C28.6868 4.176 28.3774 4.88 27.7588 5.456C27.1614 6.01067 26.3934 6.288 25.4548 6.288ZM28.1748 8.144V26H22.7028V8.144H28.1748ZM43.0203 7.952C45.1109 7.952 46.7749 8.63467 48.0123 10C49.2709 11.344 49.9003 13.2 49.9003 15.568V26H44.4603V16.304C44.4603 15.1093 44.1509 14.1813 43.5323 13.52C42.9136 12.8587 42.0816 12.528 41.0363 12.528C39.9909 12.528 39.1589 12.8587 38.5403 13.52C37.9216 14.1813 37.6123 15.1093 37.6123 16.304V26H32.1403V8.144H37.6123V10.512C38.1669 9.72267 38.9136 9.104 39.8523 8.656C40.7909 8.18667 41.8469 7.952 43.0203 7.952ZM52.6148 17.04C52.6148 15.2053 52.9561 13.5947 53.6388 12.208C54.3428 10.8213 55.2921 9.75467 56.4868 9.008C57.6814 8.26133 59.0148 7.888 60.4868 7.888C61.6601 7.888 62.7268 8.13333 63.6868 8.624C64.6681 9.11467 65.4361 9.776 65.9908 10.608V2.32H71.4628V26H65.9908V23.44C65.4788 24.2933 64.7428 24.976 63.7828 25.488C62.8441 26 61.7454 26.256 60.4868 26.256C59.0148 26.256 57.6814 25.8827 56.4868 25.136C55.2921 24.368 54.3428 23.2907 53.6388 21.904C52.9561 20.496 52.6148 18.8747 52.6148 17.04ZM65.9908 17.072C65.9908 15.7067 65.6068 14.6293 64.8388 13.84C64.0921 13.0507 63.1748 12.656 62.0868 12.656C60.9988 12.656 60.0708 13.0507 59.3028 13.84C58.5561 14.608 58.1828 15.6747 58.1828 17.04C58.1828 18.4053 58.5561 19.4933 59.3028 20.304C60.0708 21.0933 60.9988 21.488 62.0868 21.488C63.1748 21.488 64.0921 21.0933 64.8388 20.304C65.6068 19.5147 65.9908 18.4373 65.9908 17.072ZM74.3335 17.04C74.3335 15.2053 74.6748 13.5947 75.3575 12.208C76.0615 10.8213 77.0108 9.75467 78.2055 9.008C79.4002 8.26133 80.7335 7.888 82.2055 7.888C83.3788 7.888 84.4455 8.13333 85.4055 8.624C86.3868 9.11467 87.1548 9.776 87.7095 10.608V2.32H93.1815V26H87.7095V23.44C87.1975 24.2933 86.4615 24.976 85.5015 25.488C84.5628 26 83.4642 26.256 82.2055 26.256C80.7335 26.256 79.4002 25.8827 78.2055 25.136C77.0108 24.368 76.0615 23.2907 75.3575 21.904C74.6748 20.496 74.3335 18.8747 74.3335 17.04ZM87.7095 17.072C87.7095 15.7067 87.3255 14.6293 86.5575 13.84C85.8108 13.0507 84.8935 12.656 83.8055 12.656C82.7175 12.656 81.7895 13.0507 81.0215 13.84C80.2748 14.608 79.9015 15.6747 79.9015 17.04C79.9015 18.4053 80.2748 19.4933 81.0215 20.304C81.7895 21.0933 82.7175 21.488 83.8055 21.488C84.8935 21.488 85.8108 21.0933 86.5575 20.304C87.3255 19.5147 87.7095 18.4373 87.7095 17.072ZM97.4283 26.128C96.9483 26.128 96.5536 25.9893 96.2443 25.712C95.9456 25.424 95.7963 25.072 95.7963 24.656C95.7963 24.2293 95.9456 23.872 96.2443 23.584C96.5536 23.296 96.9483 23.152 97.4283 23.152C97.8976 23.152 98.2816 23.296 98.5803 23.584C98.8896 23.872 99.0443 24.2293 99.0443 24.656C99.0443 25.072 98.8896 25.424 98.5803 25.712C98.2816 25.9893 97.8976 26.128 97.4283 26.128ZM106.135 26L104.423 23.52L102.983 26H100.023L102.967 21.44L99.9425 17.072H103.015L104.727 19.536L106.167 17.072H109.127L106.135 21.568L109.207 26H106.135ZM117.781 17.072L112.181 30.24H109.237L111.285 25.696L107.653 17.072H110.709L112.773 22.656L114.821 17.072H117.781ZM119.73 23.744H123.602V26H116.674V23.824L120.386 19.328H116.706V17.072H123.522V19.248L119.73 23.744Z" fill="#EDEDED"/>
</svg>
